# xmcd
#
# Track frame offsets:
# 150
# 17217
# 32521
# 44486
# 55753
# 67261
# 85885
# 95375
# 107790
# 123221
# 136002
#
# Disc length: 2105 seconds
#
# Revision: 1
# Processed by: cddbd v1.5.2PL0 Copyright (c) Steve Scherf et al.
# Submitted via: CedeCatalogueitor 2.6.0.6 http://personales.ya.com/cdcatalogueitor
#
DISCID=8e08370b
DTITLE=Alado Sincera - Cuidado Contigo
DYEAR=1900
DGENRE=
TTITLE0=Viajar Lo Imprescindible
TTITLE1=Ya Puedes
TTITLE2=Sigue
TTITLE3=La Suerte Es De Todos
TTITLE4=Luz Solar
TTITLE5=A Ras De Mi
TTITLE6=Hiero
TTITLE7=¿cuanto Tiemo Hemos Estado Aqui?
TTITLE8=Adios
TTITLE9=Es Esto
TTITLE10=Cc
EXTD=
EXTT0=
EXTT1=
EXTT2=
EXTT3=
EXTT4=
EXTT5=
EXTT6=
EXTT7=
EXTT8=
EXTT9=
EXTT10=
PLAYORDER=
